PathFileType	4	(X/Y/Z)	C:/Users/opensim2020/Desktop/walking_exp_matlab/subject01_walking06_straight_02.trc																																																																																																																															
DataRate	CameraRate	NumFrames	NumMarkers	Units	OrigDataRate	OrigDataStartFrame	OrigNumFrames																																																																																																																											
100	100	5	43	mm	100	1664	171																																																																																																																											
Frame#	Time	LFHD			RFHD			LBHD			RBHD			C7			T10			CLAV			STRN			RBAK			LSHO			LUPA			LELB			LFRM			LWRA			LWRB			LFIN			RSHO			RUPA			RELB			RFRM			RWRA			RWRB			RFIN			LASI			RASI			LPSI			RPSI			LTHI			LKNE			LTIB			LANK			LHEE			LTOE			RTHI			RKNE			RTIB			RANK			RHEE			RTOE			*39			*40			*41			*42		
		X1	Y1	Z1	X2	Y2	Z2	X3	Y3	Z3	X4	Y4	Z4	X5	Y5	Z5	X6	Y6	Z6	X7	Y7	Z7	X8	Y8	Z8	X9	Y9	Z9	X10	Y10	Z10	X11	Y11	Z11	X12	Y12	Z12	X13	Y13	Z13	X14	Y14	Z14	X15	Y15	Z15	X16	Y16	Z16	X17	Y17	Z17	X18	Y18	Z18	X19	Y19	Z19	X20	Y20	Z20	X21	Y21	Z21	X22	Y22	Z22	X23	Y23	Z23	X24	Y24	Z24	X25	Y25	Z25	X26	Y26	Z26	X27	Y27	Z27	X28	Y28	Z28	X29	Y29	Z29	X30	Y30	Z30	X31	Y31	Z31	X32	Y32	Z32	X33	Y33	Z33	X34	Y34	Z34	X35	Y35	Z35	X36	Y36	Z36	X37	Y37	Z37	X38	Y38	Z38	X39	Y39	Z39	X40	Y40	Z40	X41	Y41	Z41	X42	Y42	Z42	X43	Y43	Z43
																																																																																																																																		
150	1.49	571.54755	1653.62012	1021.64594	611.91333	1657.79419	1129.6521	455.20627	1621.70911	1060.30164	495.33109	1626.573	1174.09521	410.51804	1420.69531	1100.23108	386.35938	1124.72205	1111.17041	556.00482	1353.9176	1091.7937	603.27063	1202.55713	1090.01978	365.21472	1225.09961	1184.35986	482.15518	1377.15637	933.60736	441.24921	1188.79517	858.63281	417.16226	1043.17212	867.65698	433.89218	930.93365	844.30524	485.83936	800.66754	867.99402	433.55399	808.4765	838.38538	461.22943	726.06226	840.16675	500.35754	1383.97974	1246.81677	456.27917	1184.83691	1355.02197	467.67242	1059.20959	1364.39331	524.53265	951.27594	1396.20459	634.50201	861.78754	1379.14221	590.8775	849.84607	1415.73853	648.79102	787.91382	1418.65125	572.59595	928.16962	1002.05609	562.97864	919.58038	1219.29077	383.30511	936.58386	1045.44287	378.81158	938.00934	1190.3811	599.55292	604.52771	949.15295	614.77386	471.37146	970.70154	581.12012	282.67313	962.73157	570.89539	67.57587	1021.88519	530.14075	37.74449	1078.31006	717.26007	32.42368	1006.69556	485.57758	586.28577	1286.58655	467.34891	427.87833	1274.38977	316.24097	334.63834	1277.90259	166.35197	188.85829	1238.3429	116.52146	207.89571	1184.96912	195.39716	46.5381	1218.28125	598.39917	1692.42932	1108.77795	-1972.87561	1023.99835	3102.47437	NaN	NaN	NaN	NaN	NaN	NaN
151	1.5	581.55664	1653.85022	1019.56116	621.92297	1658.32361	1127.48474	465.12122	1622.24744	1057.62939	505.40152	1627.20959	1171.90735	420.56845	1421.3584	1098.31641	395.85403	1125.46423	1108.97595	565.95538	1354.33093	1090.05652	612.80945	1203.00342	1088.29138	374.84546	1225.99988	1182.38977	492.42065	1377.86035	931.95551	453.48248	1189.51917	856.17841	430.5448	1043.51599	864.67853	449.86652	931.354	841.10455	504.09018	802.01715	864.68042	451.82422	809.01117	834.84888	480.93671	727.1488	836.59131	510.42374	1384.50061	1244.94116	465.65167	1185.78162	1353.62524	475.3674	1059.85388	1361.90369	530.30652	950.81458	1393.40369	638.85846	859.50848	1376.57483	595.17224	848.38269	1413.22424	651.7865	785.21735	1415.74573	581.84735	928.60815	999.86743	572.39282	920.30762	1217.4187	392.62299	936.86151	1043.57642	388.08374	937.49139	1188.5708	604.99976	603.91083	947.49664	619.0625	470.80447	969.16162	582.69513	282.49658	962.4118	570.91553	67.58302	1021.94794	529.85638	37.68639	1078.16162	717.34686	32.15065	1006.61224	502.59842	585.2323	1284.79224	488.18573	426.91116	1272.54614	336.18106	336.27237	1277.65515	182.61075	195.34361	1236.93066	133.11644	215.73045	1183.74585	208.45531	51.89927	1219.03662	608.55573	1693.07715	1106.6062	-1973.10022	1024.02161	3101.95972	-2013.13232	1022.1842	3138.32886	NaN	NaN	NaN
152	1.51	591.59277	1654.3075	1017.44196	631.93762	1659.01746	1125.11731	475.27908	1622.76306	1056.16028	515.49396	1628.07556	1170.3855	430.47583	1422.17029	1096.97791	405.2822	1126.34656	1106.84961	575.53314	1354.93567	1088.40393	622.31317	1203.41992	1086.63098	384.33432	1226.88403	1180.34509	502.68652	1378.56238	930.31982	465.8584	1190.17151	853.8916	444.28143	1043.41113	861.75659	465.83801	931.81647	837.92731	522.7923	803.76978	861.10327	470.18723	809.63086	831.49628	501.10797	728.31097	832.90161	520.35376	1385.01733	1243.2356	474.79947	1186.63403	1352	482.9899	1060.36646	1359.55322	536.02258	950.31067	1390.92285	643.04529	857.12073	1374.00671	599.177	846.72351	1410.96191	654.57532	782.42786	1412.95068	591.02185	929.01501	997.93524	581.68384	921.1748	1215.78674	401.73911	937.09161	1041.7749	397.12036	936.74976	1186.78357	610.20514	603.21313	945.92181	623.65131	469.9765	967.61884	584.47662	282.12936	962.02917	570.99237	67.66438	1022.01959	529.87158	37.80309	1078.13416	717.45953	32.01643	1006.54517	519.32538	584.62646	1282.49792	508.92599	426.58286	1270.86499	356.45447	337.70752	1276.77429	199.35588	201.38985	1235.02283	149.80338	221.60025	1181.12268	224.05104	58.1725	1220.65601	618.4408	1693.54211	1104.41284	-1972.96228	1024.04333	3102.51538	-2013.2262	1022.11877	3138.11768	NaN	NaN	NaN
153	1.52	601.76514	1654.94568	1015.19019	642.10541	1659.52454	1123.04785	485.34805	1623.36536	1054.31641	525.64294	1628.82544	1168.45789	440.30069	1423.09656	1095.36804	414.49469	1127.27502	1104.75647	585.30902	1355.44727	1086.92651	631.64984	1203.77698	1085.11902	393.70935	1227.72241	1178.20105	512.88947	1379.25793	928.84406	478.17932	1190.93701	851.50446	458.40479	1043.59045	858.74481	481.8302	932.45117	834.64673	541.17334	805.19232	858.09528	488.98721	810.31653	827.73108	521.57141	729.83148	829.20441	530.16248	1385.46521	1241.60596	484.07794	1187.26843	1350.41272	490.81601	1060.87122	1357.33044	541.78473	949.96466	1388.88452	647.08276	854.67682	1371.44055	603.2002	845.13983	1408.55432	657.224	779.58826	1409.93762	600.0321	929.36456	996.16632	590.83966	922.05688	1214.30164	410.67804	937.29138	1040.10913	406.11929	935.91034	1185.03748	615.31287	602.43597	944.51001	627.15698	469.2121	966.28094	586.43475	281.87836	961.70941	571.25165	67.72352	1022.15656	530.00427	38.0304	1078.23389	717.65594	31.72789	1006.46124	535.72681	585.27905	1280.42322	529.52118	426.95935	1269.18872	376.6066	339.43677	1275.39404	217.11853	206.85367	1232.69666	167.30875	225.77419	1177.89978	241.53644	63.47677	1222.83618	628.68793	1694.06335	1102.34558	-1972.84546	1024.48938	3102.69214	-2013.16187	1022.06189	3138.27319	NaN	NaN	NaN
154	1.53	611.89709	1655.3606	1013.40198	652.26526	1659.97388	1121.18237	495.41971	1623.99097	1052.67041	535.81415	1629.48218	1166.77893	450.02106	1424.01489	1093.41602	423.54459	1128.10107	1102.69678	595.04993	1355.91162	1085.52612	640.89307	1204.07861	1083.67566	402.98889	1228.53333	1176.05066	522.98901	1379.86194	927.44116	490.43875	1191.79736	849.30994	471.82483	1043.82458	855.80249	497.81018	933.14221	831.39014	560.04785	807.26898	854.52747	507.74118	811.27435	824.10913	542.34924	731.68878	825.3158	539.85278	1385.849	1240.08325	493.14722	1187.81018	1348.79968	498.73889	1061.35596	1355.29858	547.47034	949.39392	1386.50525	650.99213	852.19739	1368.94189	606.95032	843.341	1406.25842	659.68073	776.69147	1407.02722	608.82587	929.57745	994.49115	600.03094	922.9928	1212.92737	419.38245	937.33673	1038.63379	414.43213	935.33722	1183.74719	620.47186	601.62396	943.22784	631.02582	468.48715	965.05841	588.57599	281.60309	961.33014	571.59113	67.81165	1022.27612	530.14105	38.23949	1078.30066	717.86407	31.51068	1006.45203	551.79688	586.37482	1278.70801	549.91583	428.03336	1267.46399	396.77261	341.34824	1273.47156	236.05266	211.29625	1230.11072	186.51878	229.04681	1174.27551	260.80273	68.04095	1225.10327	638.98798	1694.55994	1100.36658	-1973.08447	1023.97668	3102.24268	-2013.18066	1022.09186	3138.22656	NaN	NaN	NaN
